<?xml version="1.0" standalone="no"?>
<!DOCTYPE svg PUBLIC "-//W3C//DTD SVG 20010904//EN"
 "http://www.w3.org/TR/2001/REC-SVG-20010904/DTD/svg10.dtd">
<svg version="1.0" xmlns="http://www.w3.org/2000/svg"
 width="800.000000pt" height="800.000000pt" viewBox="0 0 800.000000 800.000000"
 preserveAspectRatio="xMidYMid meet">
<metadata>
Created by potrace 1.14, written by Peter Selinger 2001-2017
</metadata>
<g transform="translate(0.000000,800.000000) scale(0.100000,-0.100000)"
fill="#000000" stroke="none">
<path d="M3778 7565 c-1 -2 -46 -6 -98 -10 -52 -3 -102 -8 -110 -10 -8 -2 -44
-7 -80 -10 -36 -4 -67 -8 -70 -10 -3 -2 -26 -6 -50 -10 -25 -3 -85 -15 -135
-27 -49 -11 -97 -21 -105 -23 -12 -2 -80 -21 -110 -30 -3 -1 -18 -5 -35 -10
-73 -19 -370 -127 -423 -154 -9 -5 -75 -37 -147 -72 -173 -83 -446 -249 -540
-326 -5 -5 -44 -35 -85 -67 -298 -232 -593 -555 -801 -880 -79 -124 -79 -124
-182 -331 -179 -359 -296 -733 -343 -1100 -3 -27 -8 -58 -10 -69 -19 -100 -25
-556 -10 -741 4 -55 9 -102 11 -105 2 -3 6 -36 10 -75 3 -38 8 -72 10 -75 2
-3 6 -26 10 -50 3 -25 11 -65 17 -90 5 -25 12 -55 14 -68 4 -17 44 -172 68
-262 15 -52 89 -257 97 -265 5 -5 9 -15 9 -23 0 -14 20 -58 105 -237 57 -118
96 -189 184 -330 52 -84 177 -264 190 -275 4 -3 22 -25 41 -50 93 -122 337
-377 460 -480 177 -149 385 -295 566 -398 84 -48 336 -172 349 -172 3 0 24 -9
48 -19 81 -37 313 -118 387 -136 8 -2 69 -17 135 -34 282 -70 506 -95 845 -96
218 0 317 7 494 31 108 15 127 18 172 28 12 2 38 7 59 10 20 4 41 8 45 11 3 2
20 7 36 10 16 3 63 14 104 25 41 11 84 22 94 25 103 25 367 127 534 206 469
222 859 530 1228 970 194 233 415 606 528 894 16 39 34 84 41 100 18 41 72
206 90 275 54 210 86 359 100 480 4 25 8 59 10 75 26 190 27 674 1 835 -2 14
-7 48 -10 75 -51 408 -216 899 -428 1270 -290 507 -716 952 -1208 1260 -114
72 -362 203 -467 248 -215 92 -506 186 -653 212 -18 3 -36 7 -39 9 -5 4 -43
11 -106 21 -11 1 -49 8 -85 13 -36 6 -90 14 -120 17 -30 3 -73 8 -95 11 -46 6
-541 14 -547 9z"/>
</g>
</svg>
